<mxfile host="app.diagrams.net" modified="2023-07-11T05:08:57.572Z" agent="Mozilla/5.0 (Windows NT 10.0; Win64; x64) AppleWebKit/537.36 (KHTML, like Gecko) Chrome/114.0.0.0 Safari/537.36" version="21.6.1" etag="Vw173SCMO0xkcdZeKV4k" type="github">
  <diagram name="Page-1" id="9KkLvjiodTEFNLk0Eatf">
    <mxGraphModel>
      <root>
        <mxCell id="0" />
        <mxCell id="1" parent="0" />
      </root>
    </mxGraphModel>
  </diagram>
</mxfile>
